<?xml version="1.0" encoding="UTF-8"?>
<svg id="Layer_2" data-name="Layer 2" xmlns="http://www.w3.org/2000/svg" viewBox="0 0 876.58 295">
  <defs>
    <style>
      .cls-1 {
        fill: #fff;
      }

      .cls-1, .cls-2 {
        stroke-width: 0px;
      }

      .cls-2 {
        fill: #0066fe;
      }
    </style>
  </defs>
  <g id="Layer_1-2" data-name="Layer 1">
    <g>
      <g>
        <g>
          <path class="cls-1" d="M383.15,125.3c-5.44-2.23-9.79-5.52-13.04-9.89-3.26-4.37-4.97-9.63-5.15-15.78h24.34c.36,3.57,1.56,6.28,3.61,8.16s4.73,2.81,8.02,2.81,6.06-.82,8.02-2.48c1.96-1.65,2.94-3.85,2.94-6.62,0-2.32-.78-4.23-2.34-5.75-1.56-1.51-3.47-2.76-5.75-3.75-2.27-.98-5.51-2.09-9.7-3.34-6.06-1.87-11.01-3.75-14.84-5.62-3.83-1.87-7.13-4.63-9.89-8.29-2.76-3.65-4.15-8.42-4.15-14.31,0-8.74,3.16-15.58,9.49-20.53,6.33-4.95,14.58-7.42,24.74-7.42s18.67,2.48,25,7.42c6.33,4.95,9.72,11.83,10.16,20.66h-24.74c-.18-3.21-1.27-5.68-3.28-7.42-2.01-1.74-4.66-2.61-7.96-2.61-2.76,0-4.99.76-6.69,2.27-1.69,1.52-2.54,3.7-2.54,6.55,0,3.03,1.43,5.4,4.28,7.09,2.85,1.69,7.31,3.52,13.37,5.48,6.06,2.05,10.98,4.01,14.78,5.88,3.79,1.87,7.06,4.59,9.83,8.16,2.76,3.57,4.15,8.16,4.15,13.77s-1.36,10.21-4.08,14.58c-2.72,4.37-6.66,7.85-11.83,10.43-5.17,2.59-11.28,3.88-18.32,3.88s-13.02-1.11-18.45-3.34Z"/>
          <path class="cls-1" d="M494.32,108.32v19.39h-11.63c-8.29,0-14.76-2.03-19.39-6.08-4.64-4.05-6.95-10.67-6.95-19.86v-29.69h-9.09v-18.99h9.09v-18.19h22.86v18.19h14.98v18.99h-14.98v29.95c0,2.23.53,3.84,1.6,4.82s2.85,1.47,5.35,1.47h8.16Z"/>
          <path class="cls-1" d="M510.08,70.08c2.9-5.79,6.84-10.25,11.84-13.37,4.99-3.12,10.56-4.68,16.72-4.68,5.26,0,9.87,1.07,13.84,3.21,3.96,2.14,7.02,4.95,9.16,8.42v-10.56h22.87v74.62h-22.87v-10.56c-2.23,3.48-5.33,6.29-9.29,8.42-3.97,2.14-8.58,3.21-13.84,3.21-6.06,0-11.59-1.58-16.58-4.75-4.99-3.16-8.94-7.67-11.84-13.51-2.9-5.84-4.35-12.59-4.35-20.26s1.45-14.4,4.35-20.19ZM556.88,76.9c-3.17-3.3-7.02-4.95-11.57-4.95s-8.41,1.63-11.57,4.88c-3.17,3.26-4.75,7.73-4.75,13.44s1.58,10.23,4.75,13.57c3.16,3.34,7.02,5.01,11.57,5.01s8.4-1.65,11.57-4.95c3.16-3.3,4.75-7.8,4.75-13.51s-1.58-10.21-4.75-13.5Z"/>
          <path class="cls-1" d="M628.86,56.1c4.06-2.54,8.49-3.81,13.31-3.81v24.21h-6.28c-5.71,0-9.98,1.23-12.84,3.68-2.85,2.45-4.28,6.75-4.28,12.9v34.63h-22.87V53.09h22.87v13.37c2.67-4.37,6.04-7.82,10.09-10.37Z"/>
          <path class="cls-1" d="M700.65,108.32v19.39h-11.63c-8.29,0-14.76-2.03-19.39-6.08-4.64-4.05-6.95-10.67-6.95-19.86v-29.69h-9.09v-18.99h9.09v-18.19h22.86v18.19h14.98v18.99h-14.98v29.95c0,2.23.53,3.84,1.6,4.82,1.07.98,2.85,1.47,5.35,1.47h8.16Z"/>
          <path class="cls-1" d="M786.41,53.09v74.62h-22.87v-10.16c-2.32,3.3-5.46,5.95-9.43,7.96-3.97,2-8.36,3.01-13.17,3.01-5.71,0-10.74-1.27-15.11-3.81-4.37-2.54-7.76-6.22-10.16-11.03-2.41-4.81-3.61-10.47-3.61-16.98v-43.59h22.73v40.52c0,4.99,1.29,8.87,3.88,11.63,2.58,2.76,6.06,4.14,10.43,4.14s7.98-1.38,10.56-4.14c2.58-2.76,3.88-6.64,3.88-11.63v-40.52h22.87Z"/>
          <path class="cls-1" d="M829.91,55.23c3.92-2.14,8.51-3.21,13.77-3.21,6.15,0,11.72,1.56,16.72,4.68,4.99,3.12,8.94,7.58,11.84,13.37,2.9,5.8,4.35,12.53,4.35,20.19s-1.45,14.42-4.35,20.26c-2.9,5.84-6.84,10.34-11.84,13.51-5,3.16-10.56,4.75-16.72,4.75-5.17,0-9.74-1.07-13.71-3.21-3.97-2.14-7.07-4.9-9.29-8.29v46h-22.87V53.09h22.87v10.56c2.23-3.48,5.3-6.29,9.23-8.42ZM848.56,76.83c-3.16-3.25-7.06-4.88-11.7-4.88s-8.4,1.65-11.57,4.95c-3.16,3.3-4.75,7.8-4.75,13.5s1.58,10.21,4.75,13.51c3.16,3.3,7.02,4.95,11.57,4.95s8.42-1.67,11.63-5.01c3.21-3.34,4.82-7.86,4.82-13.57s-1.58-10.18-4.75-13.44Z"/>
        </g>
        <g>
          <path class="cls-1" d="M370.99,189.56c4.01-7.27,9.61-12.92,16.78-16.98,7.17-4.06,15.31-6.08,24.4-6.08,11.14,0,20.68,2.94,28.62,8.83,7.93,5.88,13.24,13.9,15.91,24.07h-25.14c-1.96-3.83-4.64-6.75-8.02-8.76-3.39-2-7.27-3.01-11.63-3.01-7.04,0-12.75,2.43-17.12,7.29-4.37,4.86-6.55,11.35-6.55,19.46s2.18,14.62,6.55,19.52c4.37,4.9,10.07,7.35,17.12,7.35,4.37,0,8.25-1.02,11.63-3.07,3.39-2.05,6.06-4.99,8.02-8.83h25.14c-2.67,10.16-7.98,18.17-15.91,24-7.93,5.84-17.47,8.76-28.62,8.76-9.09,0-17.23-2.03-24.4-6.08-7.18-4.06-12.77-9.7-16.78-16.92-4.01-7.22-6.02-15.46-6.02-24.74s2-17.54,6.02-24.8Z"/>
          <path class="cls-1" d="M492.89,162.48v98.95h-22.87v-98.95h22.87Z"/>
          <path class="cls-1" d="M510.01,175.51c-2.54-2.36-3.81-5.28-3.81-8.76s1.27-6.53,3.81-8.89c2.54-2.36,5.82-3.54,9.83-3.54s7.15,1.18,9.7,3.54c2.54,2.36,3.81,5.33,3.81,8.89s-1.27,6.4-3.81,8.76c-2.54,2.36-5.77,3.54-9.7,3.54s-7.29-1.18-9.83-3.54ZM531.21,186.82v74.62h-22.87v-74.62h22.87Z"/>
          <path class="cls-1" d="M613.06,194.5c5.22,5.66,7.82,13.44,7.82,23.33v43.59h-22.73v-40.52c0-4.99-1.29-8.87-3.88-11.63-2.59-2.76-6.06-4.14-10.43-4.14s-7.85,1.38-10.43,4.14c-2.59,2.76-3.88,6.64-3.88,11.63v40.52h-22.87v-74.62h22.87v9.89c2.32-3.3,5.43-5.91,9.36-7.82,3.92-1.92,8.34-2.88,13.24-2.88,8.74,0,15.71,2.83,20.93,8.49Z"/>
          <path class="cls-1" d="M638.01,175.51c-2.54-2.36-3.81-5.28-3.81-8.76s1.27-6.53,3.81-8.89c2.54-2.36,5.82-3.54,9.83-3.54s7.15,1.18,9.7,3.54c2.54,2.36,3.81,5.33,3.81,8.89s-1.27,6.4-3.81,8.76c-2.54,2.36-5.77,3.54-9.7,3.54s-7.29-1.18-9.83-3.54ZM659.21,186.82v74.62h-22.87v-74.62h22.87Z"/>
          <path class="cls-1" d="M679.41,203.8c3.16-5.79,7.57-10.25,13.24-13.37,5.66-3.12,12.15-4.68,19.46-4.68,9.36,0,17.18,2.45,23.47,7.35,6.29,4.91,10.41,11.82,12.37,20.73h-24.34c-2.05-5.7-6.02-8.56-11.9-8.56-4.19,0-7.53,1.63-10.03,4.88s-3.74,7.91-3.74,13.97,1.25,10.72,3.74,13.97c2.49,3.26,5.84,4.88,10.03,4.88,5.89,0,9.85-2.85,11.9-8.56h24.34c-1.96,8.74-6.11,15.6-12.44,20.59s-14.13,7.49-23.4,7.49c-7.31,0-13.8-1.56-19.46-4.68-5.66-3.12-10.08-7.58-13.24-13.37-3.17-5.8-4.75-12.57-4.75-20.33s1.58-14.53,4.75-20.32Z"/>
        </g>
      </g>
      <g>
        <path class="cls-2" d="M147.38,0C83.51,0,29,40.78,8.5,97.64h26.51C54.19,54.65,97.35,24.6,147.38,24.6c67.81,0,122.98,55.17,122.98,122.98,0,50.17-30.2,93.41-73.38,112.51v26.49c57.05-20.42,97.98-75.02,97.98-139C294.97,66.21,228.76,0,147.38,0Z"/>
        <path class="cls-2" d="M67.73,197h-4.81,0s-28.14,0-28.14,0h0s-26.46,0-26.46,0h0c3.06,8.6,6.89,16.82,11.43,24.6h47.99c4,0,7.26,3.26,7.26,7.27v47.27c3.89,2.21,7.9,4.24,12,6.09s8.31,3.52,12.6,5h0v-58.35c0-5.49-1.4-10.66-3.85-15.18-5.4-9.94-15.93-16.69-28.01-16.69Z"/>
        <path class="cls-2" d="M196.99,201.48v30.46c28.88-17.04,48.28-48.48,48.28-84.36,0-53.97-43.92-97.89-97.89-97.89-35.75,0-67.07,19.25-84.16,47.94h30.58c13.38-14.36,32.44-23.34,53.57-23.34,40.41,0,73.29,32.88,73.29,73.28,0,21.28-9.12,40.49-23.68,53.9Z"/>
        <path class="cls-2" d="M95.69,155.01h-21.2s-24.69,0-24.69,0h0s-25.16,0-25.16,0h0s-24.63,0-24.63,0h0c.4,8.41,1.52,16.62,3.31,24.6h92.38c11.21,0,20.31,9.1,20.31,20.31v91.88c2,.43,4,.83,6.03,1.18,6.07,1.06,12.27,1.74,18.57,2.02v-95.07c0-24.77-20.14-44.91-44.91-44.91Z"/>
        <path class="cls-2" d="M130.18,113.02H3.89c-1.92,7.97-3.2,16.19-3.74,24.6h130.02c14.79,0,26.83,12.02,26.83,26.83v130.39c8.41-.54,16.64-1.78,24.6-3.69v-126.7c0-28.37-23.08-51.43-51.44-51.43Z"/>
      </g>
    </g>
  </g>
</svg>